Coordinates
version=1
nRows=11
nColumns=36
inDegrees=yes

Units are S.I. units (second, meters, Newtons, ...)
If the header above contains a line with 'inDegrees', this indicates whether rotational values are in degrees (yes) or radians (no).

endheader
time	pelvis_tilt	pelvis_list	pelvis_rotation	pelvis_tx	pelvis_ty	pelvis_tz	hip_flexion_r	hip_adduction_r	hip_rotation_r	knee_angle_r	knee_angle_r_beta	ankle_angle_r	subtalar_angle_r	mtp_angle_r	hip_flexion_l	hip_adduction_l	hip_rotation_l	knee_angle_l	knee_angle_l_beta	ankle_angle_l	subtalar_angle_l	mtp_angle_l	lumbar_extension	lumbar_bending	lumbar_rotation	arm_flex_r	arm_add_r	arm_rot_r	elbow_flex_r	pro_sup_r	arm_flex_l	arm_add_l	arm_rot_l	elbow_flex_l	pro_sup_l
      1.10000000	    -22.90573466	     -4.16049846	      4.39817335	     -0.45231358	      1.26072218	     -0.63152641	     39.18828305	     -1.85828825	     -6.38819633	      3.19251890	      0.05571997	    -32.64440385	      4.07806984	     -6.83577454	     40.69097689	     -5.15277881	     -6.37998224	      5.74454911	      0.10026130	    -32.93328934	      8.91016913	     -6.83577454	    -11.77330679	      5.89001397	     -1.82446450	    -50.90767207	    -14.46530595	    -12.58789548	     58.44607848	    114.70337662	    -57.62500309	    -18.07086359	    -13.50500106	     75.51373680	    113.78806252
      1.11000000	    -22.70908442	     -4.15393530	      4.39375939	     -0.44465361	      1.23856231	     -0.63206590	     39.75430642	     -2.06135539	     -6.06854266	      3.52222409	      0.06147441	    -34.21893356	      3.51142791	     -6.88909478	     41.39619337	     -5.34012728	     -7.04950839	      6.50820603	      0.11358962	    -33.23414886	      9.91563900	     -6.88909478	    -12.53764947	      5.89382170	     -1.66329728	    -51.95100929	    -14.00627252	    -12.35129526	     59.06417754	    114.37055474	    -58.39113412	    -17.83354447	    -12.66082132	     76.15272878	    113.52226622
      1.12000000	    -22.47209927	     -4.11931304	      4.52114275	     -0.43683450	      1.21549021	     -0.63295670	     40.35156098	     -2.43243523	     -6.32879951	      4.19543313	      0.07322412	    -34.73968899	      3.83063637	     -6.95818626	     42.04400973	     -5.37207783	     -7.27080777	      7.37955948	      0.12879761	    -33.29829098	     10.15539455	     -6.95818626	    -13.31846394	      5.89023936	     -1.61866010	    -53.02246273	    -13.54652972	    -11.77320314	     59.79962698	    111.60888918	    -59.17929530	    -17.50376104	    -11.72455756	     77.08809918	    110.97874626
      1.13000000	    -22.20473693	     -4.09145460	      4.59566856	     -0.42885545	      1.19134611	     -0.63353716	     40.91218916	     -2.67888409	     -5.88306104	      5.04982292	      0.08813604	    -35.55584636	      1.38615854	     -7.01918631	     42.93191415	     -5.55319046	     -7.90405758	      8.97846934	      0.15670385	    -32.62734800	     10.17827695	     -7.01918631	    -14.07626176	      5.84972301	     -1.46958191	    -54.18402705	    -12.91176386	    -11.67954342	     60.16306253	    114.67199155	    -59.90930706	    -17.12430651	    -11.21666664	     77.42312610	    113.96899528
      1.14000000	    -21.83345096	     -4.04014207	      4.71339515	     -0.42104824	      1.16650217	     -0.63442636	     41.52910752	     -3.02446174	     -5.86537878	      6.36326373	      0.11105990	    -35.73273578	     -0.52136342	     -7.09660815	     43.73727360	     -5.64952436	     -8.11167864	     10.67058595	      0.18623686	    -32.54898032	      9.43608150	     -7.09660815	    -15.00654180	      5.82716669	     -1.39540951	    -55.25229502	    -12.37384200	    -11.19321515	     60.64308746	    114.68937128	    -60.54377493	    -16.60419916	    -10.60276855	     77.94456524	    114.17437716
      1.15000000	    -21.39325653	     -3.98991349	      4.82661325	     -0.41344867	      1.14082739	     -0.63518971	     42.24158455	     -3.37809442	     -5.80000881	      8.18475143	      0.14285086	    -35.60713325	     -2.13975827	     -7.16182741	     44.57694831	     -5.76165099	     -8.13713617	     12.66473282	      0.22104129	    -32.61331284	      8.32801094	     -7.16182741	    -16.07910420	      5.78863568	     -1.32488296	    -56.21656544	    -11.74800712	    -10.72597933	     61.05322964	    114.55630293	    -61.07423527	    -15.97583021	    -10.02164600	     78.37586896	    114.16120435
      1.16000000	    -20.95068258	     -3.93386127	      4.91873923	     -0.40593212	      1.11415580	     -0.63573909	     43.16728714	     -3.73325083	     -5.72534934	     10.59047537	      0.18483866	    -35.24116394	     -3.23704463	     -7.23392696	     45.51829308	     -5.90726549	     -8.00306503	     14.96473337	      0.26118387	    -32.38759516	      7.58759106	     -7.23392696	    -17.16003582	      5.71775694	     -1.21905065	    -57.09975872	    -11.01342194	    -10.31436579	     61.27350505	    114.61364785	    -61.50511504	    -15.30194700	     -9.46196682	     78.65816575	    114.33694255
      1.17000000	    -20.41923996	     -3.86942390	      4.97701597	     -0.39829320	      1.08663014	     -0.63632741	     44.19805900	     -4.10150245	     -5.84454380	     13.34228377	      0.23286678	    -35.55837783	     -3.16922442	     -7.24842297	     46.44200317	     -6.09796288	     -7.92022456	     17.31401843	      0.30218663	    -32.64453990	      7.46931087	     -7.24842297	    -18.35375310	      5.64667500	     -1.09279159	    -57.89521874	    -10.30836832	     -9.66405004	     61.41143794	    112.82576085	    -61.82730180	    -14.57798593	     -8.72768790	     78.98633211	    112.62369689
      1.18000000	    -20.13433976	     -3.80890696	      4.94213757	     -0.39099481	      1.05762650	     -0.63663849	     45.71301466	     -4.35222268	     -5.55448795	     16.55631535	      0.28896221	    -36.36022229	     -3.53188030	     -7.27462407	     47.71458195	     -6.31195853	     -7.63523430	     19.83162076	      0.34612708	    -32.91223135	      7.13247726	     -7.27462407	    -19.29487450	      5.52081115	     -0.97216280	    -58.53095010	     -9.63188567	     -9.12379483	     61.07959796	    114.61006858	    -62.04728427	    -13.77730197	     -8.27860977	     78.66698786	    114.39187981
      1.19000000	    -19.83541337	     -3.78917084	      4.99201923	     -0.38440321	      1.02807051	     -0.63724948	     47.54396592	     -4.73146343	     -5.82989831	     21.39308033	      0.37337969	    -32.56652420	     -3.68621883	     -7.29655106	     49.06562388	     -6.48377747	     -7.01406918	     23.36708800	      0.40783262	    -29.64191297	      6.45300686	     -7.29655106	    -20.38827564	      5.51736474	     -0.88632628	    -58.99565771	     -8.95692042	     -8.25481241	     60.87266385	    111.38613902	    -61.98181210	    -12.99361126	     -7.31014146	     78.60129995	    111.24343219
      1.20000000	    -19.84486442	     -3.77286326	      4.98461465	     -0.37868292	      0.99716732	     -0.63741187	     50.40496839	     -5.15279154	     -5.87296477	     29.17311898	      0.50916698	    -20.07132563	     -4.10887044	     -7.33926801	     51.43318252	     -6.94492774	     -6.92062238	     30.17620951	      0.52667421	    -17.33794389	      7.06728344	     -7.33926801	    -21.17270640	      5.38966704	     -0.88446146	    -59.19827875	     -8.49367939	     -7.34697687	     59.98025281	    114.55756491	    -61.87585012	    -12.22380553	     -6.79561619	     77.91910607	    114.60164843
